<svg height="512pt" viewBox="0 -51 512.00198 512" width="512pt" xmlns="http://www.w3.org/2000/svg"><g fill="#d1d3d4"><path d="m162.132812 59.839844c0 28.277344-22.921874 51.199218-51.199218 51.199218s-51.199219-22.921874-51.199219-51.199218 22.921875-51.199219 51.199219-51.199219 51.199218 22.921875 51.199218 51.199219zm0 0"/><path d="m452.265625 59.839844c0 28.277344-22.921875 51.199218-51.199219 51.199218s-51.199218-22.921874-51.199218-51.199218 22.921874-51.199219 51.199218-51.199219 51.199219 22.921875 51.199219 51.199219zm0 0"/><path d="m307.199219 128.105469c0 28.277343-22.921875 51.199219-51.199219 51.199219s-51.199219-22.921876-51.199219-51.199219c0-28.277344 22.921875-51.199219 51.199219-51.199219s51.199219 22.921875 51.199219 51.199219zm0 0"/></g><path d="m435.199219 111.039062h-76.800781c-32.988282 0-59.730469 26.742188-59.730469 59.734376v9.121093c-2.832031-.375-5.679688-.570312-8.535157-.589843h-76.800781c0-37.703126-30.5625-68.265626-68.265625-68.265626h-76.800781c-32.988281 0-59.734375 26.742188-59.734375 59.734376v162.132812h145.070312v68.265625h204.796876v-68.265625h145.070312v-153.601562c0-37.703126-30.566406-68.265626-68.269531-68.265626zm0 0" fill="#e6e7e8"/><path d="m442.386719 102.871094c23.824219-22.816406 24.636719-60.628906 1.816406-84.453125s-60.628906-24.640625-84.453125-1.820313c-23.824219 22.820313-24.640625 60.632813-1.820312 84.457032.59375.617187 1.199218 1.222656 1.820312 1.816406-16.503906 1.5625-32.054688 8.453125-44.296875 19.628906-3.199219-32.835938-32.410156-56.859375-65.246094-53.660156-28.410156 2.769531-50.890625 25.25-53.660156 53.660156-12.242187-11.175781-27.792969-18.066406-44.296875-19.628906 23.824219-22.820313 24.640625-60.632813 1.820312-84.453125-22.820312-23.824219-60.628906-24.640625-84.453124-1.820313-23.824219 22.816406-24.640626 60.628906-1.820313 84.453125.59375.621094 1.199219 1.226563 1.820313 1.820313-39.429688 3.746094-69.5625005 36.828125-69.617188 76.433594v153.601562c0 4.710938 3.820312 8.53125 8.535156 8.53125 4.710938 0 8.53125-3.820312 8.53125-8.53125v-153.601562c.039063-32.972657 26.757813-59.695313 59.734375-59.730469h68.265625c30.472656.039062 56.042969 22.980469 59.367188 53.273437-34.722656 8.125-59.304688 39.0625-59.367188 74.726563v153.597656c0 4.714844 3.820313 8.535156 8.535156 8.535156 4.710938 0 8.53125-3.820312 8.53125-8.535156v-153.601563c.042969-32.96875 26.761719-59.6875 59.734376-59.730468h68.265624c32.976563.035156 59.695313 26.757812 59.734376 59.730468v153.601563c0 4.714844 3.820312 8.535156 8.535156 8.535156 4.710937 0 8.53125-3.820312 8.53125-8.535156v-153.601563c-.058594-35.660156-24.640625-66.601562-59.367188-74.726562 3.328125-30.289062 28.898438-53.230469 59.367188-53.273438h68.269531c32.972656.039063 59.695313 26.761719 59.730469 59.734376v153.601562c0 4.710938 3.820312 8.53125 8.535156 8.53125 4.710938 0 8.535156-3.820312 8.535156-8.53125v-153.601562c-.058594-39.605469-30.191406-72.6875-69.617187-76.433594zm-374.121094-43.03125c0-23.566406 19.101563-42.667969 42.667969-42.667969s42.667968 19.101563 42.667968 42.667969c0 23.5625-19.101562 42.664062-42.667968 42.664062-23.550782-.027344-42.640625-19.113281-42.667969-42.664062zm187.734375 25.597656c23.5625 0 42.667969 19.105469 42.667969 42.667969 0 23.566406-19.101563 42.667969-42.667969 42.667969-23.5625 0-42.667969-19.101563-42.667969-42.667969.03125-23.550781 19.117188-42.636719 42.667969-42.667969zm102.398438-25.597656c0-23.566406 19.105468-42.667969 42.667968-42.667969 23.566406 0 42.667969 19.101563 42.667969 42.667969 0 23.5625-19.101563 42.664062-42.667969 42.664062-23.550781-.027344-42.636718-19.113281-42.667968-42.664062zm0 0" fill="#231f20"/></svg>