<svg viewBox="0 0 512 512" xmlns="http://www.w3.org/2000/svg" fill="#fff"><path d="m274.167969 318.492188-38.953125-9.5v-29.429688c21.664062-18.210938 35.457031-45.492188 35.457031-75.9375v-48.675781c0-33.054688-16.257813-62.378907-41.191406-80.414063h.53125v-16.007812c.003906-32.273438-26.253907-58.527344-58.523438-58.527344-32.273437 0-58.527343 26.253906-58.527343 58.527344v16.007812h.53125c-24.933594 18.035156-41.191407 47.359375-41.191407 80.414063v48.675781c0 30.28125 13.648438 57.433594 35.105469 75.640625v29.816406l-38.597656 9.414063c-40.515625 9.878906-68.808594 45.902344-68.808594 87.601562v105.902344h342.976562v-105.902344c0-41.699218-28.296874-77.722656-68.808593-87.605468zm-102.679688-45.683594c-37.640625 0-68.335937-30.21875-69.148437-67.664063 22.140625-2.277343 41.414062-15.738281 51.15625-35.875 14.230468 6.699219 29.789062 10.195313 45.65625 10.195313h41.519531v24.160156c0 38.148438-31.035156 69.183594-69.183594 69.183594zm-28.527343-214.28125c0-15.730469 12.796874-28.527344 28.527343-28.527344 15.726563 0 28.523438 12.796875 28.523438 28.527344v1.425781c-9.039063-2.71875-18.613281-4.1875-28.523438-4.1875-9.914062 0-19.488281 1.46875-28.527343 4.1875zm28.527343 27.238281c36.300781 0 66.140625 28.105469 68.945313 63.699219h-41.28125c-14.722656 0-29.070313-4.179688-41.496094-12.085938l-18.765625-11.941406-11.394531 28.480469c-4.398438 10.992187-13.914063 18.699219-25.195313 20.90625v-19.875c0-38.148438 31.039063-69.183594 69.1875-69.183594zm0 217.042969c11.835938 0 23.195313-2.085938 33.726563-5.90625v17.410156l-33.726563 30.472656-34.082031-30.789062v-17.21875c10.632812 3.902344 22.113281 6.03125 34.082031 6.03125zm141.488281 179.191406h-282.976562v-75.902344c0-27.824218 18.882812-51.863281 45.914062-58.457031l42.507813-10.367187 53.066406 47.941406 53.066407-47.941406 42.503906 10.367187c27.035156 6.59375 45.917968 30.632813 45.917968 58.457031zm0 0"/><path d="m420.105469 0c-50.667969 0-91.890625 41.222656-91.890625 91.894531 0 50.667969 41.222656 91.890625 91.890625 91.890625 50.671875 0 91.894531-41.222656 91.894531-91.890625s-41.222656-91.894531-91.894531-91.894531zm0 153.785156c-34.125 0-61.890625-27.765625-61.890625-61.890625 0-34.128906 27.765625-61.894531 61.890625-61.894531 34.128906 0 61.894531 27.765625 61.894531 61.894531 0 34.128907-27.765625 61.890625-61.894531 61.890625zm0 0"/><path d="m387.1875 76.894531h65.835938v30h-65.835938zm0 0"/></svg>