<?xml version="1.0" encoding="UTF-8" standalone="no"?>
<svg
   xmlns:dc="http://purl.org/dc/elements/1.1/"
   xmlns:cc="http://creativecommons.org/ns#"
   xmlns:rdf="http://www.w3.org/1999/02/22-rdf-syntax-ns#"
   xmlns:svg="http://www.w3.org/2000/svg"
   xmlns="http://www.w3.org/2000/svg"
   xmlns:sodipodi="http://sodipodi.sourceforge.net/DTD/sodipodi-0.dtd"
   xmlns:inkscape="http://www.inkscape.org/namespaces/inkscape"
   viewBox="0 0 700 700"
   version="1.1"
   id="svg4"
   sodipodi:docname="riot-games-logo.svg"
   width="700"
   height="700"
   inkscape:version="0.92.4 (5da689c313, 2019-01-14)"
   inkscape:export-filename="G:\Users\suitedoalex\sites\riot-games-logo-0.png"
   inkscape:export-xdpi="561.73712"
   inkscape:export-ydpi="561.73712">
  <metadata
     id="metadata10">
    <rdf:RDF>
      <cc:Work
         rdf:about="">
        <dc:format>image/svg+xml</dc:format>
        <dc:type
           rdf:resource="http://purl.org/dc/dcmitype/StillImage" />
        <dc:title></dc:title>
      </cc:Work>
    </rdf:RDF>
  </metadata>
  <defs
     id="defs8" />
  <sodipodi:namedview
     pagecolor="#ffffff"
     bordercolor="#666666"
     borderopacity="1"
     objecttolerance="10"
     gridtolerance="10"
     guidetolerance="10"
     inkscape:pageopacity="0"
     inkscape:pageshadow="2"
     inkscape:window-width="1600"
     inkscape:window-height="837"
     id="namedview6"
     showgrid="false"
     inkscape:zoom="0.37954546"
     inkscape:cx="1170.8737"
     inkscape:cy="197.16025"
     inkscape:window-x="-8"
     inkscape:window-y="-8"
     inkscape:window-maximized="1"
     inkscape:current-layer="svg4" />
  <path
     d="m 969.17505,409.6163 -8.49855,-21.77755 81.7986,4.24928 -3.7181,35.05654 z m 19.65291,-168.37763 -114.19934,54.17829 17.52827,81.26744 h 23.37103 l -3.71812,-58.42757 3.18696,-1.06232 14.34132,59.48989 h 23.90218 l -0.53116,-71.17541 3.18696,-1.06232 12.21668,72.23773 h 26.02682 l 5.84275,-85.51672 3.71809,-1.59348 6.3739,87.1102 h 33.4631 l 12.2167,-118.97978 z m 450.95464,165.72183 -32.4008,-5.3116 v -4.24927 l 31.3384,-1.06232 -0.5311,-7.9674 h -39.837 l -2.1246,20.18407 32.9319,5.84276 v 3.71811 l -34.5254,1.59348 -1.0623,7.43624 h 48.3355 z m -310.1973,-3.18696 -0.5312,7.43624 11.6855,0.53116 v 7.43623 l -24.9645,-0.53116 1.0624,-21.77754 33.9942,-0.53116 -0.5312,-7.9674 h -44.0862 l -3.7182,38.77466 h 49.9291 l -1.0624,-23.90219 z m 211.9327,14.34131 v -6.90507 l 23.371,-0.53116 v -7.43624 l -23.9021,-0.53116 v -6.90507 l 31.3384,-0.53116 v -7.9674 h -42.4928 l -1.0623,39.83698 h 44.6174 l -0.5312,-7.9674 z m -33.9942,9.02972 -4.2493,-39.30582 h -11.1543 l -16.466,18.59059 -16.4659,-18.59059 h -11.1544 l -3.7181,39.30582 h 13.279 l 1.0623,-25.49567 16.9971,17.52827 16.9971,-17.52827 1.0623,25.49567 z m -56.3029,-183.2501 h -26.558 l -2.1247,121.63557 h 31.8696 z m 108.3565,0 h -82.8609 l -3.1869,121.63557 h 91.8906 z m -25.4956,95.07759 -29.2138,1.06232 -1.5935,-71.70657 30.8073,1.06232 z m 124.8225,-68.51961 -3.187,-26.55798 h -81.7985 l 1.0623,23.37102 26.0268,1.06232 2.6558,97.20223 h 32.4007 l -9.5608,-96.13991 z m -286.2951,95.07759 h 35.0566 l -22.8399,-54.70945 18.0594,-10.09203 -12.2167,-56.83409 h -89.2348 l -3.1869,26.55798 20.184,-0.53116 -9.5608,96.13991 h 31.3384 l 1.0623,-30.80726 22.3087,-12.21668 z m -29.7449,-97.20223 25.4956,-0.53116 3.187,24.43335 -29.7449,13.81015 z m 69.0507,158.81676 h 13.279 l -10.6232,-39.30582 h -31.8695 l -10.6232,39.30582 h 13.279 l 2.1246,-10.09203 21.7775,0.53116 z m -22.3087,-17.52827 2.6558,-12.74783 12.7479,-0.53116 2.6558,12.74783 z"
     id="path2"
     style="fill:#b03336;fill-opacity:1;stroke-width:5.31159735"
     inkscape:connector-curvature="0"
     inkscape:export-filename="G:\Users\suitedoalex\sites\riot-games-logo-1.png"
     inkscape:export-xdpi="280.65967"
     inkscape:export-ydpi="280.65967" />
  <path
     d="m 152.40859,425.42468 -8.49855,-21.77755 81.79859,4.24928 -3.71812,35.05654 z M 172.0615,257.04705 57.86216,311.22534 75.39043,392.49278 h 23.37103 l -3.71812,-58.42757 3.18696,-1.06232 14.34132,59.48989 h 23.90218 l -0.53116,-71.17541 3.18696,-1.06232 12.21668,72.23773 h 26.02682 l 5.84275,-85.51672 3.71811,-1.59348 6.37392,87.1102 h 33.46307 L 238.98761,273.513 Z m 450.9546,165.72183 -32.40075,-5.3116 v -4.24927 l 31.33843,-1.06232 -0.53116,-7.9674 h -39.83699 l -2.12463,20.18407 32.93191,5.84276 v 3.71811 l -34.52539,1.59348 -1.06232,7.43624 h 48.33553 z m -310.19727,-3.18696 -0.53116,7.43624 11.68552,0.53116 v 7.43623 l -24.96451,-0.53116 1.06232,-21.77754 33.99422,-0.53116 -0.53116,-7.9674 H 289.4478 l -3.71812,38.77466 h 49.92901 l -1.06232,-23.90219 z m 211.93273,14.34131 v -6.90507 l 23.37103,-0.53116 v -7.43624 L 524.2204,418.5196 v -6.90507 l 31.33843,-0.53116 v -7.9674 h -42.49278 l -1.06232,39.83698 h 44.61742 l -0.53116,-7.9674 z m -33.99422,9.02972 -4.24928,-39.30582 h -11.15435 l -16.46596,18.59059 -16.46595,-18.59059 h -11.15436 l -3.71812,39.30582 h 13.279 l 1.06232,-25.49567 16.99711,17.52827 16.99712,-17.52827 1.06232,25.49567 z m -56.30293,-183.2501 h -26.55798 l -2.12464,121.63557 h 31.86958 z m 108.35657,0 h -82.86091 l -3.18696,121.63557 h 91.89063 z m -25.49566,95.07759 -29.21379,1.06232 -1.59348,-71.70657 30.80727,1.06232 z m 124.82252,-68.51961 -3.18696,-26.55798 H 557.1523 l 1.06232,23.37102 26.02682,1.06232 2.6558,97.20223 h 32.40075 l -9.56088,-96.13991 z m -286.29509,95.07759 h 35.05654 l -22.83986,-54.70945 18.05943,-10.09203 -12.21668,-56.83409 h -89.23483 l -3.18696,26.55798 20.18407,-0.53116 -9.56087,96.13991 h 31.33842 l 1.06232,-30.80726 22.30871,-12.21668 z m -29.74494,-97.20223 25.49567,-0.53116 3.18695,24.43335 -29.74493,13.81015 z m 69.05076,158.81676 h 13.279 l -10.6232,-39.30582 h -31.86958 l -10.6232,39.30582 h 13.279 l 2.12464,-10.09203 21.77754,0.53116 z m -22.30871,-17.52827 2.6558,-12.74783 12.74784,-0.53116 2.65579,12.74783 z"
     id="path2-7"
     style="fill:#252423;fill-opacity:1;stroke-width:5.31159735"
     inkscape:connector-curvature="0"
     inkscape:export-filename="G:\Users\suitedoalex\sites\riot-games-logo-5.png"
     inkscape:export-xdpi="65.722404"
     inkscape:export-ydpi="65.722404" />
</svg>
