<svg height="434pt" viewBox="-43 0 434 434.072" width="434pt" fill="#fff" xmlns="http://www.w3.org/2000/svg"><path d="m234.371094 299.136719c6.359375 1.640625 13.058594 1.449219 19.3125-.550781 4.953125-4.472657 8.523437-10.265626 10.296875-16.699219 2.492187-7.371094 6.40625-14.1875 11.519531-20.054688 5.871094-5.117187 12.6875-9.03125 20.0625-11.527343 6.4375-1.773438 12.238281-5.347657 16.714844-10.304688 1.996094-6.261719 2.183594-12.957031.542968-19.320312-1.515624-7.722657-1.515624-15.667969 0-23.390626 2.488282-7.234374 6.371094-13.90625 11.421876-19.648437 4.792968-4.839844 8.070312-10.96875 9.441406-17.640625-1.382813-6.65625-4.660156-12.769531-9.441406-17.601562-5.058594-5.742188-8.941407-12.417969-11.429688-19.65625-1.515625-7.722657-1.515625-15.667969 0-23.390626 1.652344-6.371093 1.464844-13.082031-.542969-19.351562-4.472656-4.953125-10.265625-8.523438-16.699219-10.296875-7.371093-2.492187-14.1875-6.40625-20.054687-11.519531-5.113281-5.871094-9.03125-12.6875-11.527344-20.0625-1.773437-6.4375-5.347656-12.238282-10.304687-16.714844-6.257813-2-12.957032-2.1875-19.320313-.542969-7.722656 1.507813-15.667969 1.507813-23.390625 0-7.234375-2.488281-13.90625-6.371093-19.648437-11.421875-4.839844-4.792968-10.96875-8.070312-17.640625-9.441406-6.65625 1.382812-12.765625 4.660156-17.597656 9.441406-5.742188 5.058594-12.421876 8.941406-19.65625 11.429688-7.726563 1.511718-15.667969 1.511718-23.394532 0-6.371094-1.65625-13.082031-1.46875-19.351562.542968-4.953125 4.472657-8.523438 10.265626-10.296875 16.699219-2.492188 7.371094-6.40625 14.1875-11.519531 20.054688-5.871094 5.117187-12.6875 9.03125-20.0625 11.527343-6.4375 1.773438-12.234376 5.347657-16.710938 10.304688-2 6.261719-2.1875 12.957031-.546875 19.320312 1.515625 7.722657 1.515625 15.667969 0 23.390626-2.488281 7.234374-6.371094 13.90625-11.421875 19.648437-4.792969 4.839844-8.070312 10.96875-9.441406 17.640625 1.382812 6.65625 4.660156 12.769531 9.441406 17.601562 5.058594 5.742188 8.941406 12.417969 11.429688 19.65625 1.515624 7.722657 1.515624 15.667969 0 23.390626-1.652344 6.371093-1.464844 13.082031.546874 19.351562 4.46875 4.953125 10.261719 8.523438 16.695313 10.296875 7.375 2.492187 14.1875 6.40625 20.054687 11.519531 5.117188 5.871094 9.03125 12.6875 11.527344 20.0625 1.773438 6.4375 5.351563 12.238282 10.304688 16.714844 6.261718 1.996094 12.957031 2.1875 19.320312.542969 4.503906-.683594 9.046875-1.074219 13.601563-1.175781 3.285156-.039063 6.566406.351562 9.75 1.167968 7.230469 2.488282 13.90625 6.371094 19.648437 11.421875 4.851563 4.800781 10.992188 8.085938 17.679688 9.449219 6.65625-1.382812 12.769531-4.660156 17.601562-9.441406 5.742188-5.058594 12.417969-8.941406 19.65625-11.429688 7.734375-1.519531 15.695313-1.515625 23.429688.007813zm48.976562-90.335938c-3.414062 7.652344-7.621094 14.925781-12.550781 21.703125-1.65625 2.375-4.464844 3.667969-7.347656 3.386719-2.878907-.285156-5.382813-2.101563-6.542969-4.753906-1.160156-2.652344-.800781-5.722657.945312-8.03125 4.273438-5.878907 7.921876-12.1875 10.878907-18.824219 1.800781-4.039062 6.535156-5.851562 10.570312-4.050781 4.035157 1.800781 5.847657 6.535156 4.046875 10.570312zm10.335938-49.265625v.464844c0 8.375-.867188 16.730469-2.589844 24.929688-.785156 3.695312-4.046875 6.339843-7.824219 6.34375-.558593-.003907-1.113281-.058594-1.65625-.167969-4.324219-.914063-7.089843-5.15625-6.175781-9.480469 1.492188-7.113281 2.246094-14.359375 2.246094-21.625-.015625-4.460938 3.539062-8.117188 8-8.230469 2.097656-.054687 4.125.742188 5.632812 2.203125 1.503906 1.460938 2.359375 3.464844 2.367188 5.5625zm-10.535156-48.800781c3.4375 7.648437 6.066406 15.636719 7.839843 23.832031.929688 4.316406-1.8125 8.570313-6.128906 9.503906-.558594.121094-1.125.183594-1.695313.1875-3.765624-.003906-7.019531-2.632812-7.816406-6.3125-1.53125-7.097656-3.808594-14.015624-6.792968-20.632812-1.816407-4.03125-.019532-8.769531 4.007812-10.585938 4.03125-1.816406 8.769531-.019531 10.585938 4.007813zm-40.800782-39.589844c1.421875-1.589843 3.414063-2.546875 5.542969-2.660156s4.214844.628906 5.792969 2.058594c6.226562 5.589843 11.855468 11.8125 16.800781 18.5625 2.613281 3.5625 1.84375 8.570312-1.71875 11.183593-3.566406 2.613282-8.570313 1.84375-11.1875-1.722656-4.296875-5.859375-9.191406-11.253906-14.605469-16.101562-3.265625-2.953125-3.53125-7.984375-.601562-11.265625zm-42.03125-20.28125c1.351563-4.207031 5.855469-6.519531 10.0625-5.167969 7.980469 2.574219 15.671875 5.976563 22.945313 10.144532 3.832031 2.210937 5.144531 7.105468 2.9375 10.9375-2.210938 3.828125-7.105469 5.144531-10.9375 2.933594-6.292969-3.625-12.953125-6.574219-19.863281-8.800782-4.167969-1.371094-6.449219-5.84375-5.121094-10.023437zm-123.886718 38.832031c4.910156-6.785156 10.519531-13.039062 16.726562-18.664062 2.117188-1.925781 5.101562-2.578125 7.828125-1.703125s4.777344 3.136719 5.378906 5.9375c.601563 2.796875-.335937 5.707031-2.464843 7.621094-5.386719 4.878906-10.25 10.304687-14.511719 16.191406-2.589844 3.582031-7.59375 4.382813-11.171875 1.789063-3.578125-2.589844-4.378906-7.59375-1.785156-11.171876zm-20.210938 45.601563c1.722656-8.210937 4.300781-16.21875 7.695312-23.890625 1.136719-2.648438 3.609376-4.484375 6.476563-4.800781 2.863281-.320313 5.679687.929687 7.367187 3.269531 1.6875 2.335938 1.984376 5.402344.78125 8.019531-2.933593 6.640625-5.164062 13.570313-6.65625 20.671875-.773437 3.707032-4.039062 6.359375-7.824218 6.363282-.550782-.003907-1.097656-.058594-1.636719-.167969-4.316406-.902344-7.089844-5.125-6.203125-9.441407zm.113281 49.847656c-1.746093-8.183593-2.632812-16.527343-2.648437-24.898437 0-4.417969 3.582031-8 8-8 4.417968 0 8 3.582031 8 8 .011718 7.261718.78125 14.5 2.296875 21.601562.617187 2.804688-.316407 5.722656-2.445313 7.648438-2.125 1.929687-5.125 2.566406-7.851562 1.675781-2.730469-.890625-4.773438-3.175781-5.351563-5.988281zm31.558594 47.269531c-1.714844 1.261719-3.859375 1.78125-5.960937 1.457032-2.101563-.328125-3.984376-1.480469-5.238282-3.199219-4.941406-6.769531-9.15625-14.039063-12.582031-21.6875-1.691406-4.007813.128906-8.632813 4.101563-10.410156 3.96875-1.777344 8.632812-.058594 10.496093 3.875 2.972657 6.625 6.628907 12.917969 10.914063 18.78125 1.261718 1.714843 1.789062 3.859375 1.464844 5.964843-.324219 2.101563-1.472657 3.992188-3.195313 5.246094zm36.839844 28.648438c-2.203125 3.832031-7.097657 5.144531-10.925781 2.9375-7.253907-4.191406-14.054688-9.125-20.289063-14.71875-2.179687-1.898438-3.164063-4.820312-2.582031-7.648438.578125-2.828124 2.640625-5.125 5.390625-6.003906 2.75-.882812 5.761719-.214844 7.878906 1.746094 5.40625 4.867188 11.304687 9.15625 17.601563 12.800781 3.816406 2.207031 5.125 7.089844 2.925781 10.914063zm-3.292969-191.03125c-3.820312 2.222656-8.71875.929688-10.941406-2.890625s-.925782-8.71875 2.890625-10.941406c7.246093-4.214844 14.917969-7.65625 22.882812-10.269531 2.726563-.933594 5.742188-.328126 7.898438 1.582031 2.15625 1.914062 3.117187 4.835937 2.515625 7.65625-.601563 2.816406-2.675782 5.09375-5.421875 5.960937-6.902344 2.273438-13.546875 5.265625-19.824219 8.925782zm40.671875 209.351562c-.269531 0-.535156-.015624-.800781-.046874-8.34375-.855469-16.570313-2.585938-24.550782-5.160157-2.863281-.757812-5.074218-3.035156-5.746093-5.921875-.671875-2.882812.304687-5.902344 2.539062-7.847656 2.234375-1.941406 5.359375-2.492188 8.125-1.429688 6.914063 2.226563 14.039063 3.726563 21.265625 4.472657 4.417969.21875 7.820313 3.980469 7.597656 8.398437-.21875 4.417969-3.980468 7.820313-8.398437 7.601563zm.375-222.789062c-2.882813.382812-5.75-.824219-7.484375-3.160156-1.734375-2.335938-2.066406-5.429688-.863281-8.078125 1.203125-2.648438 3.75-4.4375 6.652343-4.667969 8.328126-.878906 16.722657-.90625 25.054688-.078125 4.394531.441406 7.601562 4.363281 7.160156 8.757813-.441406 4.398437-4.363281 7.601562-8.761718 7.160156-7.234376-.71875-14.527344-.699219-21.757813.066406zm48.367187 217.535156c-7.96875 2.589844-16.191406 4.339844-24.527343 5.214844-.289063 0-.566407.039062-.839844.039062-4.234375-.035156-7.707031-3.367187-7.917969-7.597656-.210937-4.230468 2.90625-7.890625 7.117188-8.351562 7.21875-.761719 14.335937-2.277344 21.242187-4.523438 2.75-1.023437 5.84375-.457031 8.054688 1.476563 2.210937 1.933593 3.183593 4.921875 2.535156 7.789062-.644531 2.863281-2.8125 5.144531-5.640625 5.9375zm14.878907-24.074218c6.296875-3.640626 12.195312-7.929688 17.601562-12.796876 3.28125-2.960937 8.339844-2.703124 11.300781.578126 2.960938 3.28125 2.699219 8.339843-.582031 11.300781-6.21875 5.613281-13.011719 10.558593-20.261719 14.757812-1.214843.710938-2.59375 1.082031-4 1.082031-3.617187-.007812-6.777343-2.4375-7.714843-5.929687-.933594-3.492187.585937-7.175781 3.714843-8.992187zm0 0"/><path d="m278.882812 287.742188-.117187.257812c-2.851563 9.804688-8.855469 18.394531-17.082031 24.441406-9.25 4.050782-19.574219 4.949219-29.382813 2.558594-4.058593-.621094-8.152343-.949219-12.257812-.984375l72.089843 120.054687 15.070313-38.550781 40.128906 6.152344zm0 0"/><path d="m85.683594 312.441406c-8.226563-6.046875-14.230469-14.636718-17.078125-24.441406l-.121094-.273438-68.4492188 113.945313 40.1289058-6.152344 15.046876 38.550781 72.074218-120.054687c-4.105468.035156-8.199218.363281-12.257812.984375-9.796875 2.382812-20.105469 1.480469-29.34375-2.558594zm0 0"/></svg>